<?xml version="1.0" standalone="no"?>
<!DOCTYPE svg PUBLIC "-//W3C//DTD SVG 1.1//EN" "http://www.w3.org/Graphics/SVG/1.1/DTD/svg11.dtd" >
<svg>
<metadata>
Created by FontForge 20110222 at Mon Mar  7 08:02:09 2011
 By www-data
MuRdOiNk (c) Mortal Kombat 2002. All Rights Reserved
</metadata>
<defs>
<font id="MortalKombat1" horiz-adv-x="234" >
  <font-face 
    font-family="Mortal Kombat 1"
    font-weight="400"
    font-stretch="normal"
    units-per-em="2048"
    panose-1="2 0 0 0 0 0 0 0 0 0"
    ascent="1638"
    descent="-410"
    x-height="993"
    cap-height="1498"
    bbox="-5 -431 7619 1788"
    underline-thickness="48"
    underline-position="-140"
    unicode-range="U+0020-2122"
  />
    <missing-glyph />
    <glyph glyph-name="space" unicode=" " horiz-adv-x="390" 
 />
    <glyph glyph-name="exclam" unicode="!" horiz-adv-x="412" 
d="M129 1359h-26h-103v-824h26h34h26h172v51v61v51v43v52v34v154v95v34v35v34v34v146v26v103h-26h-103v-129zM0 -6h26h26h172h34v266h-26h-34h-26h-172v-266z" />
    <glyph glyph-name="quotedbl" unicode="&#x22;" horiz-adv-x="727" 
d="M144 947l-50 279v240h205v-240l-45 -279h-110zM475 947l-49 279v240h205v-240l-48 -279h-108z" />
    <glyph glyph-name="numbersign" unicode="#" horiz-adv-x="1139" 
d="M103 -25l87 426h-169v149h199l74 363h-273v149h303l87 429h150l-87 -429h315l87 429h151l-87 -429h173v-149h-203l-75 -363h278v-149h-308l-87 -426h-150l86 426h-314l-87 -426h-150zM370 550h314l75 363h-315z" />
    <glyph glyph-name="dollar" unicode="$" horiz-adv-x="1139" 
d="M510 -211v180q-135 17 -219.5 60.5t-146 140.5t-71.5 237l181 34q21 -145 74 -213q76 -96 182 -107v573q-111 21 -227 86q-86 48 -132.5 133t-46.5 193q0 192 136 311q91 80 270 98v86h106v-86q157 -15 249 -92q118 -98 142 -269l-186 -28q-16 106 -66.5 162.5
t-138.5 74.5v-519q136 -34 180 -53q84 -37 137 -90t81.5 -126t28.5 -158q0 -187 -119 -312t-308 -134v-182h-106zM510 1365q-105 -16 -165.5 -84t-60.5 -161q0 -92 51.5 -154t174.5 -99v498zM616 121q105 13 173.5 91t68.5 193q0 98 -48.5 157.5t-193.5 106.5v-548z" />
    <glyph glyph-name="percent" unicode="%" horiz-adv-x="1821" 
d="M119 1114q0 157 79 267t229 110q138 0 228.5 -98.5t90.5 -289.5q0 -186 -91.5 -286.5t-225.5 -100.5q-133 0 -221.5 99t-88.5 299zM432 1367q-67 0 -111.5 -58t-44.5 -213q0 -141 45 -198.5t111 -57.5q68 0 112.5 58t44.5 212q0 142 -45 199.5t-112 57.5zM433 -54
l802 1545h146l-799 -1545h-149zM1067 344q0 158 79 267.5t230 109.5q138 0 228.5 -98.5t90.5 -289.5q0 -186 -91.5 -286.5t-226.5 -100.5q-133 0 -221.5 99.5t-88.5 298.5zM1381 597q-68 0 -112.5 -58t-44.5 -213q0 -140 45 -198t111 -58q69 0 113.5 58t44.5 212
q0 142 -45 199.5t-112 57.5z" />
    <glyph glyph-name="ampersand" unicode="&#x26;" horiz-adv-x="1366" 
d="M973 173q-89 -99 -194 -148.5t-227 -49.5q-225 0 -357 152q-107 124 -107 277q0 136 87.5 245.5t261.5 192.5q-99 114 -132 185t-33 137q0 132 103.5 229.5t260.5 97.5q150 0 245.5 -92t95.5 -221q0 -209 -277 -357l263 -335q45 88 70 204l187 -40q-48 -192 -130 -316
q101 -134 229 -225l-121 -143q-109 70 -225 207zM607 937q117 69 151.5 121t34.5 115q0 75 -47.5 122.5t-118.5 47.5q-73 0 -121.5 -47t-48.5 -115q0 -34 17.5 -71.5t52.5 -79.5zM860 315l-330 409q-146 -87 -197 -161.5t-51 -147.5q0 -89 71 -185t201 -96q81 0 167.5 50.5
t138.5 130.5z" />
    <glyph glyph-name="quotesingle" unicode="'" horiz-adv-x="391" 
d="M136 947l-46 274v245h205v-245l-48 -274h-111z" />
    <glyph glyph-name="parenleft" unicode="(" horiz-adv-x="682" 
d="M479 -431q-149 188 -252 440t-103 522q0 238 77 456q90 253 278 504h129q-121 -208 -160 -297q-61 -138 -96 -288q-43 -187 -43 -376q0 -481 299 -961h-129z" />
    <glyph glyph-name="parenright" unicode=")" horiz-adv-x="682" 
d="M253 -431h-129q299 480 299 961q0 188 -43 373q-34 150 -95 288q-39 90 -161 300h129q188 -251 278 -504q77 -218 77 -456q0 -270 -103.5 -522t-251.5 -440z" />
    <glyph glyph-name="asterisk" unicode="*" horiz-adv-x="797" 
d="M64 1197l46 142q159 -56 231 -97q-19 181 -20 249h145q-3 -99 -23 -248q103 52 236 96l46 -142q-127 -42 -249 -56q61 -53 172 -189l-120 -85q-58 79 -137 215q-74 -141 -130 -215l-118 85q116 143 166 189q-129 25 -245 56z" />
    <glyph glyph-name="plus" unicode="+" horiz-adv-x="1196" 
d="M513 237v402h-399v168h399v399h170v-399h399v-168h-399v-402h-170z" />
    <glyph glyph-name="comma" unicode="," horiz-adv-x="374" 
d="M130 292h-27h-108v-425h72h63v27v109h73h63v36v90v37v36v27v36v163h-27h-109v-136z" />
    <glyph glyph-name="hyphen" unicode="-" horiz-adv-x="814" 
d="M106 696h-19h-77v-96h199h109h70h26h109h19h77v19v77h19h77v19v77h-109h-26h-25h-19h-116h-83h-26h-109h-19h-77v-96z" />
    <glyph glyph-name="hyphen" unicode="&#x2010;" horiz-adv-x="814" 
d="M106 696h-19h-77v-96h199h109h70h26h109h19h77v19v77h19h77v19v77h-109h-26h-25h-19h-116h-83h-26h-109h-19h-77v-96z" />
    <glyph glyph-name="period" unicode="." horiz-adv-x="457" 
d="M0 0h30h39h29h197v30v39v177v49h-29h-40h-29h-197v-295z" />
    <glyph glyph-name="slash" unicode="/" horiz-adv-x="569" 
d="M0 -25l425 1516h144l-424 -1516h-145z" />
    <glyph glyph-name="zero" unicode="0" horiz-adv-x="1064" 
d="M295 1371h-26h-111v-137h-26h-112v-396l1 -80l-18 -5v-619l95 -2l-1 -127h147h94h34h147h25h103v26v103h26h112v120h60v17v69v26v26v266v266v121v25v43v26v35v25v172h-26h-111v26v103h-35h-34h-35h-34h-146h-26h-103v-129zM458 1234h112v-825l-60 -5v-133h-26h-34h-26
h-34h-155v35v34v34v147v25v103l-4 34l64 1v34v35v34v34v146v26v103h26h112v26v112h25z" />
    <glyph glyph-name="one" unicode="1" horiz-adv-x="948" 
d="M282 1412h-18h-76v-94h-18h-77v-95h-18h-71v-94h24h59h24h23h18h24h106v-851h-18h-76v-95h-18h-77v-94h-18h-71l1 -88l47 -1h41h36h41h35h30h35h24h106h65h24h24h23h24h100h48h41v24v59v23v24v18v23v107h-183v47v47v48v47v118v18v17v184v41v36v41v35v30v35v24v106v65v24
v24v23v24v100v18v71h-24h-23h-24h-24h-100h-18h-71v-89z" />
    <glyph glyph-name="two" unicode="2" horiz-adv-x="1083" 
d="M186 1412h-17h-77v-189h-18h-71v-94h24h59h23h24h18h23h107v17v77h47h118h119v-378h-18h-77v-189h-18h-77v-95h-17h-77v-94h-18h-77v-189h-17h-77v-189h-18h-71v-89h41h24h30h76h24h101h47h41h24h24h17h107h77h23h101h17h71v18v71h48h41v100v18v71h-77h-23h-107h-24h-23
h-24h-100h-18h-71v17v77h18h77v18v77h17h77v18v76h18h77v101v18v70h17h77v77v184v82v18v30v17v24v18v118h-17h-77v18v76h-18h-77v18v71h-29h-101h-24h-29h-77h-24h-100h-18h-71v-89z" />
    <glyph glyph-name="three" unicode="3" horiz-adv-x="1122" 
d="M278 1412h-18h-24h-18h-23h-106v-189h29h100h24h30h76h24h100h18h71v-94h-18h-23h-18h-24h-106v-95h-18h-76v-94h-18h-77v-189h18h77v-95h23h24h23h24h100h18h71v-94h18h76v-189h-17h-77v-94h-24h-23h-24h-23h-101h-18h-70v-95h-18h-24h-18h-23h-106v-94h-18h-71v-71
q20 -31 83 -18h29h30h35h24h106h65h24h23h24h24h100h47h41v18v71h18h24h18h23h106v17v77h48h41v30v100v24v29v77v24v100v18v70h-18h-71v18v77h-17h-77v18v76h-100h-18h-71v18v77h18h76v18v76h18h77v18v77h18h76v18v76h48h41v24v59v24v23v18v24v106h-35h-42h-35h-30h-35h-24
h-106h-65h-24h-23h-24h-23h-101h-18h-70v-89z" />
    <glyph glyph-name="four" unicode="4" horiz-adv-x="1139" 
d="M566 1413h-18h-77v-95h-18h-77v-94h-18h-77v-95h-17h-77v-190h-18h-77v-95h-18h-71v-379h36h41h36h29h36h23h107h65h24h24h23h24h101h47h42v-468h23h60h23h24h18h23h107v18v23v107v101v18v71v18v17v119v47v48v17v18v184v41v36v41v36v30v35v24v106v66v23v24v24v23v101v18
v71h-30h-23h-30h-77h-24h-100h-18h-71v-89zM584 1129h77v-379h-184h-101v106v83h18h77v18v77h18h77v18v77h18z" />
    <glyph glyph-name="five" unicode="5" horiz-adv-x="1139" 
d="M86 654h29h101h24h30h77h23h101h18h71v-379h-24h-24h-23h-24h-101h-17h-72v-94h-17h-24h-18h-24h-106v-95h-18h-71v-89h36h41h36h29h36h23h107h65h24h24h23h24h101h47h42v18v71h17h77v18v77h18h77v77v23v24v24v100v18v71v18v106v18v184h-18h-77v18v76h-100h-66h-23h-101
h-18h-71v24v24v24v23v101v18v71h18h77h101h65h24h100h18h71v17v77h48h41v18v18v18v77v53h-41h-24h-30h-77h-23h-101h-18h-71h-24h-23h-18h-107h-77h-24h-100h-18h-71v-847z" />
    <glyph glyph-name="six" unicode="6" horiz-adv-x="1139" 
d="M465 1412h-18h-77v-95h-18h-77v-94h-17h-77v-95h-18h-77v-190h-18h-71v-757h47h42v-95h18h77v-89h100h65h24h101h18h71v18v71h17h77v18v77h18h77v17v77h48h41v36v29v24v18v118v24v18v106v77v24v101v17v71h-18h-71v18v77h-18h-77v18v77h-100h-18h-71v18v77h18h23h18h24
h106v17v77h18h77v18v77h48h41v18v71h-24h-23h-30h-77h-24h-17h-24h-18h-24h-106h-6h6h-6v-89zM388 844h77v-95h18h77v-308v-71h-95v-95h-94l-1 48v47h-18h-77v101v65v24v100v18v71h18h77v18v77h18z" />
    <glyph glyph-name="seven" unicode="7" horiz-adv-x="1139" 
d="M89 1412h-18h-71v-189h77h23h107h23h24h24h100h47h42v-94h-18h-77v-95h-17h-77v-94h-18h-77v-190h-18h-76v-378h-18h-71v-372h65h24h17h42h17h18l63 1h32v70v29v18v24v18v118h17h77v23v24v24v23v101v17v71l95 1v23v47v118h17h77v101v18v71h18h77v17v77h18h76v18v77h48h41
v29v24v29v77v24v100v18v71h-18h-77h-35h-41h-36h-29h-36h-23h-107h-65h-23h-24h-24h-23h-101h-17h-71v-89z" />
    <glyph glyph-name="eight" unicode="8" horiz-adv-x="1139" 
d="M281 1412h-17h-77v-95h-18h-77v-284h18h77v-95h17h77v-94h-17h-77v-95h-18h-77v-189h-18h-71v-474h47h42v-89h35h30h24h17h119h24h17h107h77h24h100h48h41v18v71h18h77v77v183v83v18v30v17v24v18v118h-18h-77v18v77h-17h-77v18v77h17h77v18v76h18h77v18v77h48h41v101v65
v24v100v18v71h-18h-71v18v71h-77h-184h-82h-18h-30h-18h-23h-18h-119v-89zM400 1317h24h23h24h101h47h42v-189h-18h-77v-95h-93l-2 95h-18h-77v18v23v18v24v106h24zM394 560h77v-95h18h77v-190h-18h-77v-94h-18h-23h-18h-24h-107v23v24v24v23v101v18v71h18h77v18v77h18z" />
    <glyph glyph-name="nine" unicode="9" horiz-adv-x="1019" 
d="M278 1422h-17h-77v-95h-18h-77v-94h-18h-71v-663h47h42v-95h18h77v-95h100h48h41v-95h-18h-23h-18h-24h-106v-94h-18h-77v-95h-18h-71v-89h30h23h30h77h24h100h48h41v18v71h18h77v18v77h18h77v17v77h17h77v18v77h18h77v101v17v72h48h41v23v65v30v18v23v18v119v23v24v18
v106v77v24v101v17v71h-18h-71v18v77h-18h-77v18v71h-100h-65h-24h-101h-18h-71v-89zM474 1327h18h71v-568h-18h-77v-95h-18h-24h-17h-24h-107v77v184v83v17v30v18v24v17v119h18h77v17v77h101z" />
    <glyph glyph-name="colon" unicode=":" horiz-adv-x="371" 
d="M0 805h20h26h19h131v20v20v130v33h-20h-26h-19h-131v-203zM0 498h20h26h19h131v20v19v131v33h-20h-26h-19h-131v-203z" />
    <glyph glyph-name="semicolon" unicode=";" horiz-adv-x="569" 
d="M182 857v205h205v-205h-205zM182 0v205h205v-205q0 -113 -40 -182.5t-127 -107.5l-50 77q57 25 84 73.5t30 139.5h-102z" />
    <glyph glyph-name="less" unicode="&#x3c;" horiz-adv-x="3248" 
d="M1090 643h-12h-48v-639h125v24v28v25v20v23v17v72v44v16v16v16v16v68v13v48h12h52v-129h16h12h81h20v68v13v48h12h52v-446h125v12v20v12v16v12v81v16v20v52v16v68v12v48v17v16v12v72v52v17v68v12v48h-12h-48v-60h-12h-53v-65h-12h-52v-64h-12h-53v12v52h-11h-53v13v52
h-12h-52v12v48h-12h-53v-60zM688 645h-13h-52v-65h-12h-53v-186q-22 -13 -44 -8v-323q60 15 44 -60h69h45h16h68h12h49v12v48h12h53v12v53h32h28v16v12v20v13v16v12v80v17v16v12v81v12v72v12v126h-12h-48v11v49h-17h-16h-16h-16h-69h-12h-48v-60zM764 580h53v-387h-12h-53
v-65h-12h-16h-12h-17h-72v16v17v15v17v68v12v49h12h53v16v16v16v16v69v12v48h12h52v12v53h12zM1330 1537h-12h-52v-64h-13h-48v-575h125v16v40v17v15v13v16v72h12h52v-128h12h53v-61h125v125h-12h-49v12v52h-12h-52v12v53h12h52v11v53h13h48v20v68v17v20v52v16v68v13v47h-12
h-49v13v48h-15h-17h-16h-16h-68h-13h-48v-61zM1406 1473h53v-193h-12h-53v-64h-11h-53v16v16v16v16v69v12v48h12h52v12v52h12zM2809 633h-17h-16h-16h-16h-68h-12h-49v-65h-12h-48v-64h16h41h15h16h12h17h72v-511h68h33h28v28v24v20v25v16v72v44v16v17v16v15v69v12v48v13v20
v12v16v12v80h12h16h12h16h73v12v53h32h28v12v48h-20h-16h-21h-51h-17h-68h-12h-48v-60zM2324 638h-12h-52v-65h-12h-53v-129h-12h-48v-446h125v16v41v15v17v11v17v72h12h16h12h17h72v-189h125v28v24v68v13v48v52v16v69v12v48v45v20v52v16v69v11v49h-12h-48v12v48h-69h-12
h-49v-60zM2337 573h52v-257h-12h-16h-12h-17h-72v16v16v16v16v69v12v48h12h52v12v52h13zM2580 1533h-12h-48v-635h52h16h72h16h16h16h67h32h28v12v48h12h48v12v52h-20h-16h-20h-52h-16h-68h-11h-48v28v16v20v52v15v69v12v47v16v16v12v72v52v16v68v12v48h-12h-52v-60z
M888 1540h-13h-52v-65h-12h-53v-186q-22 -13 -44 -8v-323q60 15 44 -60h69h45h16h68h12h49v12v48h12h53v12v53h32h28v16v12v20v13v16v12v80v17v16v12v81v12v72v12v126h-12h-48v11v49h-17h-16h-16h-16h-69h-12h-48v-60zM964 1475h53v-387h-12h-53v-65h-12h-16h-12h-17h-72v16
v17v15v17v68v12v49h12h53v16v16v16v16v69v12v48h12h52v12v53h12zM66 642h-12h-49v-643h126v20v17v20v52v17v68v13v48h12h52v-65h12h53v-64h12h52v-126h126v16v41v16v16v12v16v73h-12h-49v12v53h-12h-53v16v16v17v68v13v48q6 27 65 16v12v53h12h49v16v41v16v16v12v16v73h-12
h-49v-61h-12h-53v-65h-12h-52v-64h-12h-53v-129h-12h-52v52v16v73v16v16v17v68v12v49h-13h-52v-61zM205 1538h-12h-48v-639h125v24v28v25v20v23v17v72v44v16v16v16v16v68v13v48h12h52v-129h16h12h81h20v68v13v48h12h52v-446h125v12v20v12v16v12v81v16v20v52v16v68v12v48v17
v16v12v72v52v17v68v12v48h-12h-48v-60h-12h-53v-65h-12h-52v-64h-12h-53v12v52h-11h-53v13v52h-12h-52v12v48h-12h-53v-60zM1741 637h-13h-52v-65h-12h-49v-578h52h17h72h17h16h16h69h32h28v12v49h13h52v12v53h12h49v15v17v16v16v69v12v48h-12h-49v13v16v12v16v73h12h49v16
v17v15v17v69v12v48h-12h-49v12v49h-68h-45h-16h-69h-12h-48v-61zM1874 572h32h28v-64h-12h-52v-129h-12h-16h-12h-17h-72v12v72q-16 61 64 45v12v52h69zM1756 249h17h16h16h69h32h28v-48q-4 -28 -64 -17v-64h-12h-16h-12h-17h-72v12v16v12v16v73h15zM2270 1538h-13h-52v-65
h-12h-53v-129h-12h-48v-446h125v16v41v15v17v11v17v72h12h16h12h17h72v-189h125v28v24v68v13v48v52v16v69v12v48v45v20v52v16v69v11v49h-12h-48v12v48h-69h-12h-48v-60zM2282 1473h52v-257h-12h-16h-12h-17h-72v16v16v16v16v69v12v48h12h53v12v52h12zM1879 1538h-17h-16h-16
h-16h-68h-12h-49v-65h-12h-48v-64h16h41h15h16h12h17h72v-511h68h33h28v28v24v20v25v16v72v44v16v17v16v15v69v12v48v13v20v12v16v12v80h12h16h12h16h73v12v53h32h28v12v48h-20h-16h-21h-51h-17h-68h-12h-48v-60z" />
    <glyph glyph-name="equal" unicode="=" horiz-adv-x="1196" 
d="M1082 862h-968v168h968v-168zM1082 417h-968v168h968v-168z" />
    <glyph glyph-name="greater" unicode="&#x3e;" horiz-adv-x="7887" 
d="M134 1368h-26h-103v-1369h267v52v60v52v43v51v35v155v94v35v34v35v34v146v26v104h26h112v-276h34h26h172h43v146v26v104h26h112v-956h267v26v43v26v34v26v172v35v43v112v34v146v26v103v35v34v26v155v112v35v146v26v103h-26h-103v-129h-26h-112v-138h-26h-112v-138h-26
h-111v26v112h-26h-112v26v112h-26h-112v26v103h-26h-112v-129zM1883 1212h-26h-111v-962h-69h-69h-25h-112v60v52v146v51v43v52v34v155v94v34v35v34v34v146v26v103h-26h-111v-137h-26h-103v-1099h69h60v-129h146h25h103h146h69h60v26v103h26h103v26v171v35v43v111v35v145v26
v103v35v146v111v35v94v60v26v26q4 79 -9 137h-120v-266zM2398 1373h-26h-112v-138h-26h-104v-1236h268v35v86v35v34v26v35v155h26h112v-276h26h113v-130h268v268h-26h-104v26v112h-26h-112v26v113h26h112v25v113h26h104v43v147v35v43v112v35v147v26v103h-26h-104v26v104h-34
h-35h-35h-34h-147h-26h-104v-130zM2562 1235h113v-415h-26h-113v-138h-25h-113v34v35v35v34v147v26v104h26h112v26v112h26zM3331 1360h-25h-112v-137h-26h-103v-1229h43h34h43h112h34h146h69h60v26v103h26h112v26v111h25h112v26v112h26h103v26v25v43v26v34v26v172v26v155v25
v267h-26h-103v25v112h-26h-111v26v103h-35h-34h-34h-35h-146h-26h-103v-129zM3495 1223h111v-138h26h112v-550h-26h-112v-137h-26h-111v-138h-26h-112v112v266v121v25v43v26v35v25v172h26h112v26v112h26zM4481 1367h-26h-112v-139h-26h-112v-397q-48 -28 -95 -17v-691
q128 31 95 -129h147h95h34h147h26h103v26v103h26h113v26v113h69h60v34v26v43v26v35v26v172v35v34v26v173v26v155v26v268h-26h-103v25v104h-35h-35h-34h-35h-146h-26h-104v-129zM4645 1228h112v-828h-25h-113v-138h-26h-34h-26h-35h-155v34v35v34v35v146v26v104h26h112v34v35
v35v34v147v26v103h26h112v26v112h26zM5299 1359h-26h-103v-1365h26h34h26h172v26v43v25v35v26v171v35v43v111v35v145v26v103v35v34v26v154v112v34v146v26v103h-26h-103v-129zM5690 1372h-26h-104v-1373h268v112v35v155v35v34v35v147v26v103h26h112v-276h26h112v-276h26h112
v-130h268v60v61v34v44v112v35v146v26v104v34v35v26v155v113v34v147v26v104v69v26v112h-26h-104q6 -71 -8 -130h-26h-104v-691h-26h-112v35v34v35v35v146v26v104h-26h-112v26v34v26v35v155h-26h-112v26v104h-26h-112v-130zM6799 1372h-26h-104v-1373h268v43v35v43v112v35v147
v26v103h26h112v-138h26h112v-138h26h112v-268h268v35v86v34v35v26v35v155h-26h-104v26v112h-25h-113v35v34v35v147v26v103q11 58 138 35v26v112h26h104v35v86v35v34v26v35v155h-26h-104v-130h-25h-113v-138h-26h-112v-138h-26h-112v-276h-26h-112v112v34v156v34v35v35v146
v26v104h-26h-112v-130z" />
    <glyph glyph-name="question" unicode="?" horiz-adv-x="1139" 
d="M472 361q-1 36 -1 54q0 106 30 183q22 58 71 117q36 43 129.5 125.5t121.5 131.5t28 107q0 105 -82 184.5t-201 79.5q-115 0 -192 -72t-101 -225l-185 22q25 205 148.5 314t326.5 109q215 0 343 -117t128 -283q0 -96 -45 -177t-176 -197q-88 -78 -115 -115t-40 -85
t-15 -156h-173zM461 0v205h205v-205h-205z" />
    <glyph glyph-name="at" unicode="@" horiz-adv-x="2079" 
d="M1161 163q-65 -75 -145.5 -120.5t-161.5 -45.5q-89 0 -173 52t-136.5 160t-52.5 237q0 159 81.5 318.5t202.5 239.5t235 80q87 0 166 -45.5t136 -138.5l34 155h179l-144 -671q-30 -140 -30 -155q0 -27 20.5 -46.5t49.5 -19.5q53 0 139 61q114 80 180.5 214.5t66.5 277.5
q0 167 -85.5 312t-255 232t-374.5 87q-234 0 -427.5 -109.5t-300 -314t-106.5 -438.5q0 -245 106.5 -422t308 -261.5t446.5 -84.5q262 0 439 88t265 214h181q-51 -105 -175 -214t-295 -172.5t-412 -63.5q-222 0 -409.5 57t-319.5 171.5t-199 263.5q-84 189 -84 408
q0 244 100 465q122 271 346.5 415t544.5 144q248 0 445.5 -101.5t311.5 -302.5q97 -173 97 -376q0 -290 -204 -515q-182 -202 -398 -202q-69 0 -111.5 21t-62.5 60q-13 25 -19 86zM677 434q0 -137 65 -213t149 -76q56 0 118 33.5t118.5 99.5t92.5 167.5t36 203.5
q0 136 -67.5 211t-164.5 75q-64 0 -120.5 -32.5t-109.5 -104.5t-85 -175t-32 -189z" />
    <glyph glyph-name="A" unicode="A" horiz-adv-x="1004" 
d="M405 1369h-26h-112v-138h-26h-112v-276h-26h-103v-956h267v34v87v34v35v25v35v155h26h34h26h35h155v-405h267v60v52v146v26v104v112v34v147v25v104v95v43v112v34v147v25v104h-26h-103v26v103h-147h-26h-103v-129zM431 1231h112v-551h-26h-34h-26h-35h-155v34v34v35v34
v147v26v103h26h112v26v112h26z" />
    <glyph glyph-name="B" unicode="B" horiz-adv-x="1145" 
d="M268 1372h-26h-112v-138h-26h-104v-1235h112h35h155h35h34h35h147h69h60v26v104h26h112v25v113h26h104v34v35v34v35v147v26v103h-26h-104v26v35v26v34v156h26h104v34v35v34v35v147v26v103h-26h-104v26v104h-146h-95h-35h-147h-26h-103v-130zM553 1234h69h60v-138h-26
h-112v-276h-26h-34h-26h-35h-155v26v155q-33 129 138 95v26v112h147zM302 543h35h34h35h147h69h60v-103q-10 -58 -138 -35v-138h-26h-34h-26h-35h-155v26v34v26v35v155h34z" />
    <glyph glyph-name="C" unicode="C" horiz-adv-x="1155" 
d="M404 1370h-26h-112v-137h-25h-112v-413h-26h-103v-687h69h60v-129h146h94h35h146h69h60v26v103h25h112v26v111h26h103v172v103h-146h-120v-137h-26h-112v-138h-26h-34h-26h-34h-155v35v34v34v35v146v26v103h26h112v34v35v34v34v146v26v103h26h111v26v112h26h112v-138h266
v146v26v103h-26h-103v26v103h-34h-35h-34h-34h-146h-26h-103v-129z" />
    <glyph glyph-name="D" unicode="D" horiz-adv-x="1150" 
d="M271 1370h-25h-112v-137h-26h-103v-1229h43h34h43h112h34h146h69h60v26v103h26h112v26v111h25h112v26v112h26h103v26v25v43v26v34v26v172v26v155v25v267h-26h-103v25v112h-26h-111v26v103h-35h-34h-34h-35h-146h-26h-103v-129zM435 1233h111v-138h26h112v-550h-26h-112
v-137h-26h-111v-138h-26h-112v112v266v121v25v43v26v35v25v172h26h112v26v112h26z" />
    <glyph glyph-name="E" unicode="E" horiz-adv-x="999" 
d="M267 1369h-26h-112v-138h-26h-103v-1232h112h34h156h34h35h34h146h69h61v26v103h26h103v26v112h-43h-35h-43h-112h-34h-147h-25h-104v69v172v35h26h34h26h35h155v26v112h26h112v25v112h-35h-34h-35h-34h-147h-25h-104v35v34v155q-6 80 138 52v26v112h26h34h26h35h155v26
v112q71 -5 129 8v121h-43h-35h-43h-112h-34h-147h-25h-104v-129z" />
    <glyph glyph-name="F" unicode="F" horiz-adv-x="999" 
d="M267 1369h-26h-112v-138h-26h-103v-1232h267v112v34v147v26v103v121h26h34h26h35h155v26v112h26h112v25v112h-35h-34h-35h-34h-147h-25h-104v35v34v155q-6 80 138 52v26v112h26h34h26h35h155v26v112q71 -5 129 8v121h-43h-35h-43h-112h-34h-147h-25h-104v-129z" />
    <glyph glyph-name="G" unicode="G" horiz-adv-x="1145" 
d="M409 1370h-26h-112v-137h-25h-112v-413h-26h-103v-687h69h60v-129h146h94h35h146h69h60v26v103h25h112v26v111h112q13 11 17 26v26v34v26v43v26v34v26v172h-34h-86h-35h-34h-26h-34h-155v-138h26h112v-120q-70 -33 -138 -17v-138h-26h-34h-26h-34h-155v35v34v34v35v146
v26v103h26h112v34v35v34v34v146v26v103h26h111v26v112h26h112v-138h266v146v26v103h-26h-103v26v103h-94h-43h-26h-34h-26h-172h-9h9h-17h8h-8v-129z" />
    <glyph glyph-name="H" unicode="H" horiz-adv-x="1150" 
d="M820 1372h-25h-113v-552h-34h-35h-34h-35h-147h-26h-103v146v95v35v147v26v103h-26h-112v-138h-26h-104v-1235h35h25h173l35 9v34v35v43v112v35v147v26v103h34h35h34h35h147h69h60v-544h268v26v43v26v35v25v173v35v43v112v35v147v26v103v35v34v26v156v112v35v146v26v104
h-26h-104v-130z" />
    <glyph glyph-name="I" unicode="I" horiz-adv-x="444" 
d="M129 1369h-26h-103v-1365h26h34h26h172v26v43v25v35v26v171v35v43v111v35v145v26v103v35v34v26v154v112v34v146v26v103h-26h-103v-129z" />
    <glyph glyph-name="J" unicode="J" horiz-adv-x="949" 
d="M623 1380h-24h-102v-1009h-24h-103v-127h-141h-111v24v103h-23h-95v-253h63h55v-118h32h31h32h31h134h63h56v24v94h23h103v24v102h23h95v56v47v134v24v94v103v31v134v24v95v86v40v102v32v134v23v95h-24h-94v-118z" />
    <glyph glyph-name="K" unicode="K" horiz-adv-x="1145" 
d="M135 1372h-26h-104v-1373h268v43v35v43v112v35v147v26v103h26h112v-138h26h112v-138h26h112v-268h268v35v86v34v35v26v34v156h-26h-104v26v112h-25h-113v35v34v35v147v26v103q11 58 138 35v26v112h26h104v35v86v35v34v26v35v155h-26h-104v-130h-25h-113v-138h-26h-112
v-138h-26h-112v-276h-26h-112v112v34v156v34v35v35v146v26v104h-26h-112v-130z" />
    <glyph glyph-name="L" unicode="L" horiz-adv-x="1004" 
d="M129 1369h-26h-103v-1370h112h34h156h34h35h34h146h69h61v26v103h26h103v26v112h-43h-35h-43h-112h-34h-147h-25h-104v60v35v43v112v34v147v26v103v34v35v26v155v112v34v147v26v103h-26h-112v-129z" />
    <glyph glyph-name="M" unicode="M" horiz-adv-x="1285" 
d="M129 1368h-26h-103v-1369h267v52v60v52v43v51v35v155v94v35v34v35v34v146v26v104h26h112v-276h34h26h172h43v146v26v104h26h112v-956h267v26v43v26v34v26v172v35v43v112v34v146v26v103v35v34v26v155v112v35v146v26v103h-26h-103v-129h-26h-112v-138h-26h-112v-138h-26
h-112v26v112h-25h-112v26v112h-26h-112v26v103h-26h-112v-129z" />
    <glyph glyph-name="N" unicode="N" horiz-adv-x="1150" 
d="M130 1372h-26h-104v-1373h268v112v35v155v35v34v35v147v26v103h26h112v-276h26h112v-276h26h112v-130h268v60v61v34v44v112v35v146v26v104v34v35v26v155v113v34v147v26v104v69v26v112h-26h-104q6 -71 -8 -130h-26h-104v-691h-26h-112v35v34v35v35v146v26v104h-26h-112v26
v34v26v35v155h-26h-112v26v104h-26h-112v-130z" />
    <glyph glyph-name="O" unicode="O" horiz-adv-x="1114" 
d="M371 1367h-26h-112v-139h-26h-112v-397q-48 -28 -95 -17v-691q128 31 95 -129h147h95h34h147h26h103v26v103h26h113v26v113h69h60v34v26v43v26v35v26v172v35v34v26v173v26v155v26v268h-26h-103v25v104h-35h-35h-34h-35h-146h-26h-104v-129zM535 1228h112v-828h-25h-113
v-138h-26h-34h-26h-35h-155v34v35v34v35v146v26v104h26h112v34v35v35v34v147v26v103h26h112v26v112h26z" />
    <glyph glyph-name="P" unicode="P" horiz-adv-x="1004" 
d="M272 1369h-26h-112v-138h-26h-103v-1232h267v34v87v34v35v25v35v155h26h34h26h35h155v26v112h26h112v26v112h26h103v34v26v43v26v34v26v172v26v43v26v35v25v173h-26h-103v26v103h-35h-34h-35h-34h-147h-25h-104v-129zM436 1231h112v-414h-26h-112v-137h-26h-112v34v34v35
v34v147v26v103h26h112v26v112h26z" />
    <glyph glyph-name="Q" unicode="Q" horiz-adv-x="1140" 
d="M407 1370h-26h-111v-137h-26h-111v-410h-25h-103v-683h68h60v-137h145h94h35h145h68h60v-111q7 -16 17 -17h34h26h34h154v265h-26h-102v25v111h25h103v60v52v145v51v43v51v34v154v94v34v34v34v35v145v25v103h-26h-102v25v103h-34h-35h-34h-34h-145h-26h-102v-128z
M569 1233h111v-820h-26h-111v-137h-25h-34h-26h-34h-154v35v34v34v34v145v26v102h26h111v35v34v34v34v145v26v103h25h111v25v111h26z" />
    <glyph glyph-name="R" unicode="R" horiz-adv-x="1019" 
d="M268 1368h-26h-112v-138h-26h-104v-1236h268v35v86v35v34v26v35v155h26h112v-276h26h113v-130h268v268h-26h-104v26v112h-26h-112v26v113h26h112v25v113h26h104v43v147v35v43v112v35v147v26v103h-26h-104v26v104h-34h-35h-35h-34h-147h-26h-104v-130zM432 1230h113v-415
h-26h-113v-138h-25h-113v34v35v35v34v147v26v104h26h112v26v112h26z" />
    <glyph glyph-name="S" unicode="S" horiz-adv-x="1155" 
d="M401 1372h-26h-112v-138h-26h-112v-553h25h113v-138h147h69h60v-138h-26h-112v-138h-26h-112v26v112h-268v-276h69h61v-130h34h35h34h35h147h69h60v26v104h26h112v25v113h26h112v34v35v34v35v147v26v103h-25h-113v26v113h-147h-25h-104v26v34v26v35v155h26h112v26v112
h156h120v-138h70h60v147v26v103h-26h-104v26v104h-34h-35h-34h-35h-147h-25h-104v-130z" />
    <glyph glyph-name="T" unicode="T" horiz-adv-x="1280" 
d="M548 1368h-35h-34h-35h-34h-147h-25h-104v-138h-26h-103v-138h34h87h34h34h26h35h155v-1093h146h69h60v60v52v43v52v34v155v95v34v35v34v34v147v26v103v26v43v26v34v26v172h26h35h25h35h155v26v112h69h60v26v103h-43h-35h-43h-111h-35h-146h-26h-103v-129z" />
    <glyph glyph-name="U" unicode="U" horiz-adv-x="1019" 
d="M676 1231h-26h-112v-965h-69h-69h-26h-112v60v52v147v51v43v52v34v155v95v35v34v35v34v147v25v104h-26h-112v-138h-26h-103v-1103h69h60v-129h147h26h103h146h69h61v26v103h26h103v26v172v35v43v112v34v147v26v103v34v147v112v34v95v60v26v26q4 80 -9 138h-120v-267z" />
    <glyph glyph-name="V" unicode="V" horiz-adv-x="1199" 
d="M134 1365h-26h-103v-1100h69h60v-137h26h111v-129h146h69h60v26v103h26h112v146v26v103h25h112v146v26v103h26h103v146v34v34v26v155v111v35v146v26v103h-26h-103v-129h-26h-111v-687h-26h-112v-275h-26h-111v-138h-26h-112v52v146v26v103v34v26v172v34v26v154v112v34
v146v26v103q-8 55 -137 35v-129z" />
    <glyph glyph-name="W" unicode="W" horiz-adv-x="1599" 
d="M129 1368h-26h-103v-1102h69h60v-267h146h26h104v26v103h25h112v26v112h26h112v-267h146h69h60v26v103h26h112v26v112h26h112v26v112h69h60v25v112v52v60v52v43v52v34v155v95v34v35v34v35v146v26v103h-26h-103v-129h-26h-112v-939q-9 -33 -43 -25h-95v-138h-120
q-15 6 -17 17v35v146v26v103v34v26v155v112v35v146v26v103h-69h-69v-138h-26h-112v-688h-26h-111q33 -171 -95 -138q-38 -5 -43 26v60v146v26v103v35v26v172v34v26v155v112v35v146v26v103h-26h-112v-129z" />
    <glyph glyph-name="X" unicode="X" horiz-adv-x="1199" 
d="M0 1096h69h61v-138h25h113v-380q-11 -58 -138 -35v-138h-26h-104v-406h69h61v26v104h25h113v146v26v104h26h112v-138h26h112v-138h26h112v-130h268v268h-26h-104v26v112h-25h-113v26v112h-26h-112v26v112h26h112v147v26v104h26h112v26v112h26h104v35v86v35v34v26v35v155
h-26h-104v-130h-25h-113v-138h-26h-112v-138h-26h-112v26v112h-26h-112v26v112h-26h-112v26v104h-26h-104v-406z" />
    <glyph glyph-name="Y" unicode="Y" horiz-adv-x="999" 
d="M0 957q116 24 129 -34v-378h26h111v-541h146h69h60v34v35v25v155v112v34v26v34v26v34v155q79 18 137 8v146v26v103h26h103v43v34v43v112v34v146v26v103h-26h-103v-129h-26h-111v-275h-26h-34h-26h-34h-155v26v35v25v35v154h-26h-111v26v103h-26h-103v-541z" />
    <glyph glyph-name="Z" unicode="Z" horiz-adv-x="1300" 
d="M272 1368h-26h-112v-138h43h147h34h43h112h35h146h26h103v-138h-26h-112v-275h-26h-111v-138h-26h-112v-138h-26h-112v-137h-26h-112v-138h-26h-103v-267h43h26h34h35h34h35h146h26h103h26h155h26h267v26v103h69h60v26v112h-112h-34h-155h-35h-34h-35h-146h-26h-103v26
v112h26h112v25v112h25h112v26v112h26h112v146v26v104h26h112v25v112h69h60v35v86v34v35v26v34v155h-146h-35h-34h-26h-155h-112h-34h-147h-26h-103v-129z" />
    <glyph glyph-name="bracketleft" unicode="[" horiz-adv-x="569" 
d="M139 -407v1873h397v-149h-217v-1575h217v-149h-397z" />
    <glyph glyph-name="backslash" unicode="\" horiz-adv-x="569" 
d="M425 -25l-425 1516h145l424 -1516h-144z" />
    <glyph glyph-name="bracketright" unicode="]" horiz-adv-x="569" 
d="M436 -407h-397v149h217v1575h-217v149h397v-1873z" />
    <glyph glyph-name="asciicircum" unicode="^" horiz-adv-x="961" 
d="M239 690h-185l353 801h145l355 -801h-181l-247 597z" />
    <glyph glyph-name="underscore" unicode="_" horiz-adv-x="1587" 
d="M9 691q85 -454 456 -643q848 -213 1039 608q-7 851 -836 845q-654 -172 -659 -810zM1437 691q-45 24 -77 33q55 -55 9 -109q-148 9 -143 176q-37 42 -52 76q38 -10 43 -41q65 60 42 134q21 5 25 26l-50 42q-78 -18 -136 26h-42l-59 59q18 27 51 25q-24 81 -102 93
q-43 18 -50 59l-152 9v16l17 17q-65 -35 -127 -17q-50 59 0 102q48 -1 68 -34q1 45 42 51q690 -73 693 -743zM550 1383q2 -38 24 -60q23 -38 -50 -16l-59 8q16 59 68 34v42zM440 1290q43 -10 67 -25q-188 -11 -261 -161q-74 55 152 219q30 -9 42 -33zM744 1155l25 16
q226 -72 -25 -16zM229 1054q-41 -51 -59 -94q0 -48 -9 -84q3 -99 -8 -169q-26 -40 -68 -51q-9 264 110 465zM1039 902q44 -13 68 -26v-59l-76 9l-51 41l-17 9l-24 8q-86 81 -178 111q32 35 76 50q129 -48 202 -143zM524 919q-31 42 -26 84q25 -47 26 -84zM1065 969v26
q92 -9 0 -26zM1006 767q103 -21 185 16q14 -139 76 -236q78 -48 135 8q-38 -149 -126 -253q19 492 -608 380l-85 25q-107 77 -59 186l17 26q97 -58 186 16q180 -25 279 -168zM229 369v-25q110 -60 134 76q67 -61 52 -144q33 31 42 68q151 1 169 -118l-43 -34
q-446 -10 -489 456q68 -26 109 17q194 -331 26 -296zM1293 589q80 -16 118 34q-10 -140 -118 -34z" />
    <glyph glyph-name="grave" unicode="`" horiz-adv-x="682" 
d="M465 1194h-145l-231 280h241z" />
    <glyph glyph-name="a" unicode="a" horiz-adv-x="755" 
d="M270 912h-17h-75v-92h-17h-75v-184h-17h-69v-637h178v23v58v22v24v16v24v103h17h23h17h24h103v-270h178v40v35v97v17v70v74v23v98v17v69v63v29v74v23v98v17v69h-17h-69v17v69h-98h-17h-69v-86zM287 820h75v-367h-17h-23h-17h-24h-103v23v22v23v23v98v17v69h17h75v17v75
h17z" />
    <glyph glyph-name="b" unicode="b" horiz-adv-x="844" 
d="M178 912h-17h-75v-92h-17h-69v-821h74h24h103h23h22h24h97h46h40v17v69h17h75v17v75h17h69v23v23v23v23v98v17v68h-17h-69v18v23v17v23v103h17h69v23v23v23v23v98v17v69h-17h-69v17v69h-97h-63h-24h-97h-18h-68v-86zM367 820h46h40v-92h-17h-75v-183h-17h-23h-17h-23
h-103v17v103q-22 86 92 63v17v75h97zM201 361h23h22h24h97h46h40v-69q-7 -38 -92 -23v-92h-17h-23h-17h-23h-103v17v23v17v24v103h23z" />
    <glyph glyph-name="c" unicode="c" horiz-adv-x="839" 
d="M268 912h-17h-74v-91h-17h-74v-274h-18h-68v-457h46h40v-86h97h62h23h98h45h40v17v69h17h74v17v74h18h68v114v69h-97h-80v-91h-17h-74v-92h-18h-22h-18h-22h-103v23v23v22v24v97v17v68h17h74v23v23v23v23v97v17v68h18h74v18v74h17h74v-92h177v97v18v68h-17h-69v18v68h-22
h-24h-22h-23h-97h-17h-69v-86z" />
    <glyph glyph-name="d" unicode="d" horiz-adv-x="839" 
d="M182 912h-17h-74v-91h-18h-68v-817h29h22h29h74h23h97h46h40v17v69h17h74v17v74h17h74v17v75h18h68v17v17v28v17v23v17v115v17v103v17v177h-17h-69v17v74h-17h-74v18v68h-23h-23h-22h-23h-98h-17h-68v-86zM291 821h74v-92h17h74v-365h-17h-74v-91h-18h-74v-92h-17h-74v74
v177v81v16v29v17v23v17v114h17h74v18v74h18z" />
    <glyph glyph-name="e" unicode="e" horiz-adv-x="730" 
d="M178 912h-17h-75v-92h-17h-69v-821h75h22h104h23h23h23h97h46h41v17v69h17h69v17v75h-29h-23h-29h-74h-23h-98h-17h-69v46v115v23h17h23h17h24h103v17v75h17h75v17v74h-23h-23h-23h-23h-98h-17h-69v23v23v103q-4 54 92 35v17v75h17h23h17h24h103v17v75q47 -3 86 5v81h-29
h-23h-29h-74h-23h-98h-17h-69v-86z" />
    <glyph glyph-name="f" unicode="f" horiz-adv-x="740" 
d="M178 912h-17h-75v-92h-17h-69v-821h178v75v22v98v18v68v81h17h23h17h24h103v17v75h17h75v17v74h-23h-23h-23h-23h-98h-17h-69v23v23v103q-4 54 92 35v17v75h17h23h17h24h103v17v75q47 -3 86 5v81h-29h-23h-29h-74h-23h-98h-17h-69v-86z" />
    <glyph glyph-name="g" unicode="g" horiz-adv-x="834" 
d="M272 908h-17h-74v-91h-17h-74v-273h-17h-68v-455h46h39v-85h97h62h23h97h45h40v17v68h17h74v18v73h74q8 7 11 17v17v23v17v29v17v22v17v114h-22h-57h-24h-22h-17h-23h-102v-91h17h74v-79q-46 -22 -91 -12v-91h-17h-23h-17h-23h-102v23v23v22v23v97v17v68h17h74v23v23v22
v23v96v18v68h17h74v17v74h17h74v-91h176v96v18v68h-17h-68v17v68h-62h-29h-17h-23h-17h-114h-6h6h-11h5h-5v-85z" />
    <glyph glyph-name="h" unicode="h" horiz-adv-x="830" 
d="M548 916h-17h-75v-369h-23h-23h-23h-23h-99h-17h-69v98v63v24v98v17v69h-17h-75v-92h-17h-70v-825h23h17h116l23 6v23v23v29v75v23v98v18v68h23h23h23h23h99h46h40v-363h179v17v29v17v24v17v115v23v29v75v23v99v17v69v23v23v17v104v75v24v97v18v69h-17h-70v-87z" />
    <glyph glyph-name="i" unicode="i" horiz-adv-x="369" 
d="M88 917h-18h-70v-923h18h23h17h117v18v29v17v23v18v115v24v29v75v24v98v17v70v24v23v17v104v76v23v99v17v70h-18h-69v-87z" />
    <glyph glyph-name="j" unicode="j" horiz-adv-x="695" 
d="M415 919h-16h-68v-672h-16h-68v-84h-94h-74v16v68h-16h-63v-168h42h37v-79h21h21h21h21h89h42h37v16v63h16h68v16v68h16h63v37v31v89v16v63v69v20v90v16v63v57v27v68v21v89v16v63h-16h-63v-79z" />
    <glyph glyph-name="k" unicode="k" horiz-adv-x="834" 
d="M91 912h-17h-69v-913h178v29v23v28v75v23v98v17v69h17h75v-92h17h74v-92h18h74v-178h178v23v57v23v23v18v22v104h-17h-69v17v75h-17h-75v23v22v24v97v18v68q7 39 92 23v18v74h17h69v23v58v23v22v18v23v103h-17h-69v-86h-17h-75v-92h-17h-75v-92h-17h-74v-183h-18h-74v74
v23v103v23v23v24v97v17v69h-17h-75v-86z" />
    <glyph glyph-name="l" unicode="l" horiz-adv-x="735" 
d="M86 907h-18h-68v-908h74h23h103h23h23h22h97h46h40v17v69h18h68v17v74h-29h-23h-28h-74h-23h-97h-17h-69v40v23v29v74v22v98v17v68v23v23v17v103v74v23v97v18v68h-17h-74v-86z" />
    <glyph glyph-name="m" unicode="m" horiz-adv-x="924" 
d="M86 912h-17h-69v-913h178v35v40v34v29v34v23v104v62v24v22v24v22v98v17v70h18h74v-185h23h17h115h29v98v17v70h17h75v-638h178v17v29v17v23v17v115v23v29v75v22v98v17v69v23v23v17v104v74v24v97v17v69h-17h-69v-86h-17h-75v-92h-18h-74v-92h-18h-74v17v75h-17h-75v17v75
h-17h-75v17v69h-17h-75v-86z" />
    <glyph glyph-name="n" unicode="n" horiz-adv-x="830" 
d="M86 912h-17h-69v-913h178v74v24v103v23v23v23v98v17v68h17h75v-183h17h74v-184h18h74v-86h178v40v40v23v29v75v23v97v17v69v23v23v18v103v75v22v98v17v69v46v18v74h-17h-69q4 -47 -6 -86h-17h-69v-460h-17h-75v24v22v23v24v97v17v69h-17h-74v17v23v17v24v103h-18h-74v17
v69h-17h-75v-86z" />
    <glyph glyph-name="o" unicode="o" horiz-adv-x="820" 
d="M248 912h-17h-75v-93h-18h-74v-266q-33 -18 -64 -11v-462q86 21 64 -86h98h63h23h98h18h69v17v69h17h76v18v75h46h40v23v17v29v17v24v17v115v24v22v18v115v18v103v18v179h-17h-69v16v70h-24h-23h-23h-23h-98h-17h-70v-86zM358 819h75v-554h-17h-76v-92h-17h-23h-17h-23
h-104v23v23v23v23v98v17v70h17h75v23v23v23v23v98v18v69h18h74v17v75h18z" />
    <glyph glyph-name="p" unicode="p" horiz-adv-x="740" 
d="M182 907h-17h-74v-91h-18h-68v-817h177v23v57v23v23v17v23v103h17h23h17h23h103v17v74h17h74v17v75h18h68v22v17v29v17v23v17v114v17v29v17v23v17v114h-17h-69v18v68h-23h-22h-23h-23h-97h-17h-69v-86zM291 816h74v-275h-17h-74v-90h-18h-74v22v23v23v22v98v17v68h17h75
v18v74h17z" />
    <glyph glyph-name="q" unicode="q" horiz-adv-x="849" 
d="M283 909h-18h-77v-95h-18h-76v-284h-18h-71v-472h47h42v-95h100h65h24h100h47h42v-76q5 -11 12 -12h23h18h24h106v183h-18h-71v17v77h18h71v42v36v100v35v30v35v24v106v65v24v23v24v24v100v17v72h-18h-71v17v71h-23h-24h-24h-23h-101h-17h-71v-88zM395 814h77v-567h-18
h-77v-95h-17h-24h-18h-23h-107v24v24v23v24v100v18v71h18h77v24v23v24v23v101v18v71h17h77v17v77h18z" />
    <glyph glyph-name="r" unicode="r" horiz-adv-x="745" 
d="M179 911h-17h-75v-92h-18h-69v-825h179v23v58v23v23v17v24v103h17h75v-184h18h75v-87h179v179h-17h-70v17v75h-17h-75v17v76h17h75v17v75h18h69v29v98v23v29v75v23v98v17v69h-17h-70v18v69h-23h-23h-23h-23h-98h-18h-69v-87zM289 819h75v-277h-17h-76v-92h-17h-75v23v23
v23v23v98v18v69h17h75v17v75h18z" />
    <glyph glyph-name="s" unicode="s" horiz-adv-x="825" 
d="M265 912h-18h-74v-92h-17h-75v-368h17h75v-91h98h45h40v-92h-17h-74v-92h-18h-74v17v75h-178v-184h46h40v-86h23h23h23h23h98h45h40v17v69h18h74v17v75h17h75v23v23v23v23v98v17v68h-17h-75v18v75h-98h-16h-69v17v23v17v23v103h17h74v17v75h104h80v-92h46h40v98v17v69
h-17h-69v17v69h-23h-23h-23h-23h-98h-16h-69v-86z" />
    <glyph glyph-name="t" unicode="t" horiz-adv-x="929" 
d="M369 917h-24h-22h-24h-23h-98h-17h-70v-93h-17h-69v-92h23h58h23h23h17h24h103v-733h98h46h41v40v35v29v35v23v103v64v23v23v23v23v98v18v69v17v29v18v22v18v115h17h24h16h24h104v17v76h46h40v17v69h-29h-23h-29h-74h-24h-98h-17h-69v-86z" />
    <glyph glyph-name="u" unicode="u" horiz-adv-x="740" 
d="M449 820h-17h-75v-643h-46h-46h-17h-75v40v35v98v34v28v35v23v103v63v23v23v23v23v98v17v69h-17h-75v-92h-17h-69v-735h46h40v-86h98h17h69h97h46h41v17v69h17h69v17v115v23v29v75v22v98v18v68v23v98v74v23v63v40v18v17q3 53 -6 92h-80v-178z" />
    <glyph glyph-name="v" unicode="v" horiz-adv-x="830" 
d="M91 909h-17h-69v-733h46h40v-91h17h74v-86h97h46h40v17v69h17h75v97v17v69h17h74v97v18v68h17h69v97v23v23v17v103v74v24v97v17v69h-17h-69v-86h-17h-74v-458h-17h-75v-183h-17h-74v-92h-17h-75v35v97v17v69v23v17v114v23v17v103v75v22v97v18v68q-5 37 -91 24v-86z" />
    <glyph glyph-name="w" unicode="w" horiz-adv-x="1109" 
d="M86 912h-17h-69v-735h46h40v-178h97h18h69v17v69h17h74v17v75h18h75v-178h97h46h40v17v69h17h75v17v75h17h75v17v75h46h40v17v74v35v40v35v28v35v23v103v64v22v24v22v24v97v17v69h-17h-69v-86h-17h-75v-626q-6 -22 -29 -17h-63v-92h-80q-10 4 -11 11v24v97v17v69v23v17
v104v74v24v97v17v69h-46h-46v-92h-18h-75v-459h-17h-74q22 -114 -63 -92q-26 -3 -29 17v40v98v17v69v23v17v115v23v17v104v74v24v97v17v69h-17h-75v-86z" />
    <glyph glyph-name="x" unicode="x" horiz-adv-x="830" 
d="M0 727h46h40v-92h17h75v-252q-8 -38 -92 -23v-92h-17h-69v-269h46h40v17v69h17h75v97v17v69h17h74v-91h17h75v-92h17h74v-86h178v178h-17h-69v17v74h-17h-75v18v74h-17h-74v17v74h17h74v98v17v69h18h74v17v75h17h69v23v57v23v23v17v23v103h-17h-69v-86h-17h-75v-92h-17
h-74v-91h-17h-75v17v74h-17h-74v17v75h-18h-74v17v69h-17h-69v-269z" />
    <glyph glyph-name="y" unicode="y" horiz-adv-x="735" 
d="M0 641q77 16 86 -22v-253h18h74v-362h97h46h40v23v23v17v104v74v23v18v22v18v22v104q53 12 92 5v98v17v69h17h69v29v23v28v75v23v98v17v69h-17h-69v-86h-18h-74v-184h-17h-23h-17h-23h-103v17v24v16v24v103h-18h-74v17v69h-17h-69v-362z" />
    <glyph glyph-name="z" unicode="z" horiz-adv-x="919" 
d="M182 907h-17h-74v-91h28h98h22h29h74h23h97h17h69v-92h-17h-75v-182h-17h-74v-92h-17h-74v-91h-17h-75v-91h-17h-74v-92h-18h-68v-177h29h17h22h24h22h23h97h18h68h17h103h17h177v17v69h46h40v17v74h-74h-23h-103h-23h-23h-23h-97h-17h-68v17v75h17h74v16v75h17h74v17v74
h17h75v97v17v69h17h74v17v74h46h40v23v58v22v23v18v22v103h-97h-23h-23h-17h-103h-74h-23h-97h-17h-69v-86z" />
    <glyph glyph-name="braceleft" unicode="{" horiz-adv-x="684" 
d="M57 612q77 2 125.5 41.5t64.5 108.5t17 236t6 220q9 84 33.5 135t60.5 81.5t92 46.5q38 10 124 10h56v-157h-31q-104 0 -138 -37.5t-34 -167.5q0 -262 -11 -331q-18 -107 -61.5 -165t-136.5 -103q110 -46 159.5 -140.5t49.5 -309.5q0 -195 4 -232q8 -68 40.5 -95
t127.5 -27h31v-157h-56q-98 0 -142 16q-64 23 -106 74.5t-54.5 130.5t-13.5 259t-17 249t-64.5 109t-125.5 42v163z" />
    <glyph glyph-name="bar" unicode="|" horiz-adv-x="532" 
d="M188 -431v1922h157v-1922h-157z" />
    <glyph glyph-name="braceright" unicode="}" horiz-adv-x="684" 
d="M626 612v-163q-77 -2 -125.5 -42t-64.5 -108.5t-17 -235.5t-6 -220q-9 -85 -33.5 -135.5t-60.5 -81t-92 -46.5q-38 -11 -124 -11h-56v157h31q104 0 138 37.5t34 168.5q0 250 9 317q16 111 64 177.5t136 103.5q-115 55 -162 145.5t-47 305.5q0 195 -5 233
q-7 67 -39.5 93.5t-127.5 26.5h-31v157h56q98 0 142 -16q64 -22 106 -74t54.5 -131t13.5 -259t17 -248.5t64.5 -108.5t125.5 -42z" />
    <glyph glyph-name="asciitilde" unicode="~" horiz-adv-x="1196" 
d="M87 557v205q106 120 278 120q60 0 126 -17.5t188 -69.5q69 -29 103.5 -38t69.5 -9q65 0 134.5 39t123.5 98v-212q-64 -60 -129.5 -87t-147.5 -27q-60 0 -114.5 14t-173 67t-197.5 53q-64 0 -120.5 -27.5t-140.5 -108.5z" />
    <glyph glyph-name="Adieresis" unicode="&#xc4;" horiz-adv-x="609" 
 />
    <glyph glyph-name="Aring" unicode="&#xc5;" horiz-adv-x="609" 
 />
    <glyph glyph-name="Ccedilla" unicode="&#xc7;" horiz-adv-x="729" 
 />
    <glyph glyph-name="Eacute" unicode="&#xc9;" horiz-adv-x="648" 
 />
    <glyph glyph-name="Ntilde" unicode="&#xd1;" horiz-adv-x="1200" 
d="M146 1646h-28h-113v-151h160h38h38h28h170h122h38h160h28h114v-151h-29h-122v-603h-29h-122v37v38v38v38v160v28v113h-28h-123v29v122h-38h-94h-38h-37h-29h-37h-170v-1349h38h28h38h169q17 17 19 38v160v38v47v123v38v160v28v114h29h122v-302h28h123v-302h28h123v-142
h292v66v57v160v28v114v122v38v161v28v113v104v47v123v37v161v28v113h-28h-113v29v122h28h113v29v113h-160h-38h-38h-28h-170h-122h-38h-160h-28h-114v-142z" />
    <glyph glyph-name="Odieresis" unicode="&#xd6;" horiz-adv-x="696" 
 />
    <glyph glyph-name="Udieresis" unicode="&#xdc;" horiz-adv-x="660" 
 />
    <glyph glyph-name="aacute" unicode="&#xe1;" horiz-adv-x="369" 
 />
    <glyph glyph-name="agrave" unicode="&#xe0;" horiz-adv-x="369" 
 />
    <glyph glyph-name="acircumflex" unicode="&#xe2;" horiz-adv-x="369" 
 />
    <glyph glyph-name="adieresis" unicode="&#xe4;" horiz-adv-x="369" 
 />
    <glyph glyph-name="atilde" unicode="&#xe3;" horiz-adv-x="369" 
 />
    <glyph glyph-name="aring" unicode="&#xe5;" horiz-adv-x="369" 
 />
    <glyph glyph-name="ccedilla" unicode="&#xe7;" horiz-adv-x="510" 
 />
    <glyph glyph-name="eacute" unicode="&#xe9;" horiz-adv-x="486" 
 />
    <glyph glyph-name="egrave" unicode="&#xe8;" horiz-adv-x="486" 
 />
    <glyph glyph-name="ecircumflex" unicode="&#xea;" horiz-adv-x="486" 
 />
    <glyph glyph-name="edieresis" unicode="&#xeb;" horiz-adv-x="486" 
 />
    <glyph glyph-name="iacute" unicode="&#xed;" 
 />
    <glyph glyph-name="igrave" unicode="&#xec;" 
 />
    <glyph glyph-name="icircumflex" unicode="&#xee;" 
 />
    <glyph glyph-name="idieresis" unicode="&#xef;" 
 />
    <glyph glyph-name="ntilde" unicode="&#xf1;" horiz-adv-x="841" 
d="M99 1099h-18h-76v-101h107h26h25h19h113h82h26h107h18h77v-101h-20h-81v-403h-20h-81v25v25v25v26v107v19v75h-19h-83v20v81h-25h-63h-25h-25h-19h-25h-114v-902h25h19h26h113q11 11 12 25v107v26v31v82v26v107v19v76h20h81v-202h19h83v-202h18h83v-95h195v44v38v107v19
v76v82v25v108v19v75v70v31v82v25v108v19v75h-19h-75v19v82h18h76v19v76h-107h-26h-25h-19h-113h-82h-26h-107h-18h-77v-95z" />
    <glyph glyph-name="oacute" unicode="&#xf3;" horiz-adv-x="366" 
 />
    <glyph glyph-name="ograve" unicode="&#xf2;" horiz-adv-x="366" 
 />
    <glyph glyph-name="ocircumflex" unicode="&#xf4;" horiz-adv-x="366" 
 />
    <glyph glyph-name="odieresis" unicode="&#xf6;" horiz-adv-x="366" 
 />
    <glyph glyph-name="otilde" unicode="&#xf5;" horiz-adv-x="366" 
 />
    <glyph glyph-name="uacute" unicode="&#xfa;" horiz-adv-x="342" 
 />
    <glyph glyph-name="ugrave" unicode="&#xf9;" horiz-adv-x="342" 
 />
    <glyph glyph-name="ucircumflex" unicode="&#xfb;" horiz-adv-x="342" 
 />
    <glyph glyph-name="udieresis" unicode="&#xfc;" horiz-adv-x="342" 
 />
    <glyph glyph-name="dagger" unicode="&#x2020;" horiz-adv-x="451" 
 />
    <glyph glyph-name="degree" unicode="&#xb0;" horiz-adv-x="285" 
 />
    <glyph glyph-name="cent" unicode="&#xa2;" horiz-adv-x="636" 
 />
    <glyph glyph-name="sterling" unicode="&#xa3;" horiz-adv-x="636" 
 />
    <glyph glyph-name="section" unicode="&#xa7;" horiz-adv-x="420" 
 />
    <glyph glyph-name="bullet" unicode="&#x2022;" horiz-adv-x="387" 
 />
    <glyph glyph-name="paragraph" unicode="&#xb6;" horiz-adv-x="450" 
 />
    <glyph glyph-name="germandbls" unicode="&#xdf;" horiz-adv-x="498" 
 />
    <glyph glyph-name="registered" unicode="&#xae;" horiz-adv-x="747" 
 />
    <glyph glyph-name="copyright" unicode="&#xa9;" horiz-adv-x="714" 
 />
    <glyph glyph-name="trademark" unicode="&#x2122;" horiz-adv-x="681" 
 />
    <glyph glyph-name="acute" unicode="&#xb4;" horiz-adv-x="462" 
 />
    <glyph glyph-name="dieresis" unicode="&#xa8;" horiz-adv-x="371" 
 />
    <glyph glyph-name="AE" unicode="&#xc6;" horiz-adv-x="819" 
 />
    <glyph glyph-name="Oslash" unicode="&#xd8;" horiz-adv-x="696" 
 />
    <glyph glyph-name="plusminus" unicode="&#xb1;" horiz-adv-x="636" 
 />
    <glyph glyph-name="yen" unicode="&#xa5;" horiz-adv-x="636" 
 />
    <glyph glyph-name="mu" unicode="&#xb5;" horiz-adv-x="420" 
 />
    <glyph glyph-name="mu" unicode="&#x3bc;" horiz-adv-x="420" 
 />
    <glyph glyph-name="ordfeminine" unicode="&#xaa;" horiz-adv-x="402" 
 />
    <glyph glyph-name="ordmasculine" unicode="&#xba;" horiz-adv-x="402" 
 />
    <glyph glyph-name="ae" unicode="&#xe6;" horiz-adv-x="747" 
 />
    <glyph glyph-name="oslash" unicode="&#xf8;" horiz-adv-x="366" 
 />
    <glyph glyph-name="questiondown" unicode="&#xbf;" horiz-adv-x="567" 
 />
    <glyph glyph-name="exclamdown" unicode="&#xa1;" horiz-adv-x="309" 
 />
    <glyph glyph-name="logicalnot" unicode="&#xac;" horiz-adv-x="1395" 
 />
    <glyph glyph-name="florin" unicode="&#x192;" horiz-adv-x="576" 
 />
    <glyph glyph-name="guillemotleft" unicode="&#xab;" horiz-adv-x="540" 
 />
    <glyph glyph-name="guillemotright" unicode="&#xbb;" horiz-adv-x="540" 
 />
    <glyph glyph-name="ellipsis" unicode="&#x2026;" horiz-adv-x="792" 
 />
    <glyph glyph-name="nonbreakingspace" unicode="&#xa0;" horiz-adv-x="498" 
 />
    <glyph glyph-name="Agrave" unicode="&#xc0;" horiz-adv-x="609" 
 />
    <glyph glyph-name="Atilde" unicode="&#xc3;" horiz-adv-x="609" 
 />
    <glyph glyph-name="Otilde" unicode="&#xd5;" horiz-adv-x="696" 
 />
    <glyph glyph-name="OE" unicode="&#x152;" horiz-adv-x="954" 
 />
    <glyph glyph-name="oe" unicode="&#x153;" horiz-adv-x="756" 
 />
    <glyph glyph-name="endash" unicode="&#x2013;" horiz-adv-x="684" 
 />
    <glyph glyph-name="emdash" unicode="&#x2014;" horiz-adv-x="894" 
 />
    <glyph glyph-name="quotedblleft" unicode="&#x201c;" horiz-adv-x="342" 
 />
    <glyph glyph-name="quotedblright" unicode="&#x201d;" horiz-adv-x="300" 
 />
    <glyph glyph-name="quoteleft" unicode="&#x2018;" horiz-adv-x="237" 
 />
    <glyph glyph-name="quoteright" unicode="&#x2019;" horiz-adv-x="240" 
 />
    <glyph glyph-name="divide" unicode="&#xf7;" horiz-adv-x="636" 
 />
    <glyph glyph-name="ydieresis" unicode="&#xff;" horiz-adv-x="393" 
 />
    <glyph glyph-name="Ydieresis" unicode="&#x178;" horiz-adv-x="526" 
 />
    <glyph glyph-name="currency" unicode="&#xa4;" horiz-adv-x="420" 
 />
    <glyph glyph-name="guilsinglleft" unicode="&#x2039;" horiz-adv-x="321" 
 />
    <glyph glyph-name="guilsinglright" unicode="&#x203a;" horiz-adv-x="321" 
 />
    <glyph glyph-name="daggerdbl" unicode="&#x2021;" horiz-adv-x="336" 
 />
    <glyph glyph-name="periodcentered" unicode="&#xb7;" horiz-adv-x="207" 
 />
    <glyph glyph-name="periodcentered" unicode="&#x2219;" horiz-adv-x="207" 
 />
    <glyph glyph-name="quotesinglbase" unicode="&#x201a;" 
 />
    <glyph glyph-name="quotedblbase" unicode="&#x201e;" horiz-adv-x="402" 
 />
    <glyph glyph-name="perthousand" unicode="&#x2030;" horiz-adv-x="729" 
 />
    <glyph glyph-name="Acircumflex" unicode="&#xc2;" horiz-adv-x="609" 
 />
    <glyph glyph-name="Ecircumflex" unicode="&#xca;" horiz-adv-x="648" 
 />
    <glyph glyph-name="Aacute" unicode="&#xc1;" horiz-adv-x="609" 
 />
    <glyph glyph-name="Edieresis" unicode="&#xcb;" horiz-adv-x="648" 
 />
    <glyph glyph-name="Egrave" unicode="&#xc8;" horiz-adv-x="648" 
 />
    <glyph glyph-name="Iacute" unicode="&#xcd;" 
 />
    <glyph glyph-name="Icircumflex" unicode="&#xce;" 
 />
    <glyph glyph-name="Idieresis" unicode="&#xcf;" 
 />
    <glyph glyph-name="Igrave" unicode="&#xcc;" 
 />
    <glyph glyph-name="Oacute" unicode="&#xd3;" horiz-adv-x="696" 
 />
    <glyph glyph-name="Ocircumflex" unicode="&#xd4;" horiz-adv-x="696" 
 />
    <glyph glyph-name="Ograve" unicode="&#xd2;" horiz-adv-x="696" 
 />
    <glyph glyph-name="Uacute" unicode="&#xda;" horiz-adv-x="660" 
 />
    <glyph glyph-name="Ucircumflex" unicode="&#xdb;" horiz-adv-x="660" 
 />
    <glyph glyph-name="Ugrave" unicode="&#xd9;" horiz-adv-x="660" 
 />
    <glyph glyph-name="circumflex" unicode="&#x2c6;" horiz-adv-x="360" 
 />
    <glyph glyph-name="tilde" unicode="&#x2dc;" horiz-adv-x="483" 
 />
    <glyph glyph-name="macron" unicode="&#xaf;" horiz-adv-x="360" 
 />
    <glyph glyph-name="macron" unicode="&#x2c9;" horiz-adv-x="360" 
 />
    <glyph glyph-name="cedilla" unicode="&#xb8;" horiz-adv-x="321" 
 />
    <glyph glyph-name="Scaron" unicode="&#x160;" horiz-adv-x="621" 
 />
    <glyph glyph-name="scaron" unicode="&#x161;" horiz-adv-x="342" 
 />
    <glyph glyph-name="brokenbar" unicode="&#xa6;" horiz-adv-x="201" 
 />
    <glyph glyph-name="Eth" unicode="&#xd0;" horiz-adv-x="663" 
 />
    <glyph glyph-name="eth" unicode="&#xf0;" horiz-adv-x="483" 
 />
    <glyph glyph-name="Yacute" unicode="&#xdd;" horiz-adv-x="526" 
 />
    <glyph glyph-name="yacute" unicode="&#xfd;" horiz-adv-x="393" 
 />
    <glyph glyph-name="Thorn" unicode="&#xde;" horiz-adv-x="576" 
 />
    <glyph glyph-name="thorn" unicode="&#xfe;" horiz-adv-x="348" 
 />
    <glyph glyph-name="minus" unicode="&#xad;" horiz-adv-x="636" 
 />
    <glyph glyph-name="minus" unicode="&#x2212;" horiz-adv-x="636" 
 />
    <glyph glyph-name="multiply" unicode="&#xd7;" horiz-adv-x="636" 
 />
    <glyph glyph-name="onesuperior" unicode="&#xb9;" horiz-adv-x="300" 
 />
    <glyph glyph-name="twosuperior" unicode="&#xb2;" horiz-adv-x="300" 
 />
    <glyph glyph-name="threesuperior" unicode="&#xb3;" horiz-adv-x="300" 
 />
    <glyph glyph-name="onehalf" unicode="&#xbd;" horiz-adv-x="786" 
 />
    <glyph glyph-name="onequarter" unicode="&#xbc;" horiz-adv-x="786" 
 />
    <glyph glyph-name="threequarters" unicode="&#xbe;" horiz-adv-x="786" 
 />
    <glyph glyph-name="Zcaron" unicode="&#x17d;" horiz-adv-x="690" 
 />
    <glyph glyph-name="zcaron" unicode="&#x17e;" horiz-adv-x="462" 
 />
  </font>
</defs>
</svg>
